<svg width="1039" height="501" viewBox="0 0 1039 501" fill="none" xmlns="http://www.w3.org/2000/svg">
<rect x="98.877" y="71.3857" width="240.309" height="399.757" fill="#CF772B"/>
<rect x="143.936" y="99.9404" width="150.193" height="342.648" fill="black" fill-opacity="0.83"/>
<rect x="158.956" y="114.216" width="120.155" height="314.094" fill="#CF772B"/>
<rect x="244.675" y="285.205" width="34.5392" height="14.5019" fill="black" fill-opacity="0.83"/>
<rect x="158.956" y="71.3857" width="120.155" height="14.277" fill="black" fill-opacity="0.83"/>
<path d="M369.225 75.5473C369.225 98.3056 301.981 75.5473 219.032 75.5473C136.082 75.5473 68.8384 98.3056 68.8384 75.5473C68.8384 52.789 136.082 0 219.032 0C301.981 0 369.225 52.789 369.225 75.5473Z" fill="#CF772B"/>
<rect x="158.956" y="42.8311" width="120.155" height="14.277" fill="black" fill-opacity="0.83"/>
<path d="M0 490L438 490" stroke="black" stroke-opacity="0.75" stroke-width="22"/>
<path d="M378.176 229.804H441.964V247.564H402.596V270.504H435.6L432.64 288.116H402.596V330H378.176V229.804ZM470.377 330.592C466.923 330.592 463.963 330.099 461.497 329.112C459.129 328.125 457.106 326.793 455.429 325.116C453.85 323.34 452.666 321.317 451.877 319.048C451.186 316.779 450.841 314.312 450.841 311.648V226.696L474.225 222.7V306.616C474.225 308.984 474.619 310.661 475.409 311.648C476.297 312.536 477.875 312.98 480.145 312.98C481.23 312.98 482.414 312.881 483.697 312.684C485.078 312.487 486.311 312.289 487.397 312.092L489.617 326.744C488.137 327.435 485.621 328.273 482.069 329.26C478.615 330.148 474.718 330.592 470.377 330.592ZM539.091 255.704H562.475V294.332C562.475 300.252 562.87 305.185 563.659 309.132C564.449 313.079 565.386 316.236 566.471 318.604C567.655 321.465 569.037 323.685 570.615 325.264L551.819 331.184C550.931 330.296 550.043 329.161 549.155 327.78C548.366 326.695 547.577 325.313 546.787 323.636C545.998 321.86 545.357 319.837 544.863 317.568C542.298 322.205 538.746 325.609 534.207 327.78C529.767 329.852 524.933 330.888 519.703 330.888C515.855 330.888 512.55 330.296 509.787 329.112C507.123 327.829 504.903 326.103 503.127 323.932C501.45 321.663 500.217 318.949 499.427 315.792C498.737 312.635 498.391 309.083 498.391 305.136V255.704H521.923V302.028C521.923 305.481 522.318 308.293 523.107 310.464C523.995 312.536 525.574 313.572 527.843 313.572C530.606 313.572 533.171 311.747 535.539 308.096C537.907 304.347 539.091 299.216 539.091 292.704V255.704ZM604.454 254.372C608.203 254.372 611.657 254.717 614.814 255.408C618.07 256 620.931 256.691 623.398 257.48C626.259 258.467 628.874 259.503 631.242 260.588L623.842 277.164C623.053 276.769 622.017 276.276 620.734 275.684C619.55 275.092 618.218 274.5 616.738 273.908C615.357 273.316 613.877 272.823 612.298 272.428C610.719 272.033 609.19 271.836 607.71 271.836C606.131 271.836 604.799 272.181 603.714 272.872C602.629 273.563 602.086 274.648 602.086 276.128C602.086 277.707 603.073 279.285 605.046 280.864C607.118 282.344 609.831 283.775 613.186 285.156C619.106 287.623 623.645 290.583 626.802 294.036C630.058 297.391 631.686 301.929 631.686 307.652C631.686 310.809 631.094 313.868 629.91 316.828C628.825 319.689 627.147 322.205 624.878 324.376C622.707 326.547 619.945 328.273 616.59 329.556C613.235 330.839 609.387 331.48 605.046 331.48C601.593 331.48 598.337 331.233 595.278 330.74C592.318 330.247 589.555 329.655 586.99 328.964C584.523 328.175 582.303 327.435 580.33 326.744C578.357 325.955 576.778 325.264 575.594 324.672L583.29 307.652C583.783 307.849 584.622 308.293 585.806 308.984C587.089 309.675 588.519 310.365 590.098 311.056C591.775 311.747 593.502 312.388 595.278 312.98C597.153 313.473 598.929 313.72 600.606 313.72C602.678 313.72 604.355 313.325 605.638 312.536C607.019 311.747 607.71 310.563 607.71 308.984C607.71 307.109 606.871 305.432 605.194 303.952C603.615 302.472 601.543 301.239 598.978 300.252C591.578 297.292 586.25 293.987 582.994 290.336C579.837 286.587 578.258 281.949 578.258 276.424C578.258 273.267 578.85 270.356 580.034 267.692C581.218 265.028 582.945 262.709 585.214 260.736C587.483 258.763 590.197 257.233 593.354 256.148C596.61 254.964 600.31 254.372 604.454 254.372ZM667.48 261.328C670.045 259.059 673.005 257.381 676.36 256.296C679.715 255.211 683.217 254.668 686.868 254.668C694.564 254.668 700.04 256.987 703.296 261.624C706.552 266.261 708.18 272.527 708.18 280.42V330H684.648V283.824C684.648 280.371 684.204 277.608 683.316 275.536C682.527 273.365 680.997 272.28 678.728 272.28C677.445 272.28 676.113 272.724 674.732 273.612C673.449 274.401 672.265 275.635 671.18 277.312C670.095 278.891 669.207 280.864 668.516 283.232C667.825 285.501 667.48 288.067 667.48 290.928V330H644.096V226.696L667.48 222.7V261.328ZM786.454 323.636C786.454 329.161 785.714 333.947 784.234 337.992C782.754 342.037 780.682 345.589 778.018 348.648C775.354 351.707 772.246 354.371 768.694 356.64C765.142 358.909 761.294 361.031 757.15 363.004L747.234 346.576C750.983 344.603 753.844 342.629 755.818 340.656C757.89 338.781 759.37 336.857 760.258 334.884C761.244 333.009 761.787 331.184 761.886 329.408C762.083 327.533 762.182 325.708 762.182 323.932V229.804H786.454V323.636ZM833.861 254.224C845.602 254.224 854.137 257.579 859.465 264.288C864.892 270.997 867.605 280.272 867.605 292.112C867.605 297.736 866.865 302.965 865.385 307.8C864.004 312.536 861.833 316.68 858.873 320.232C856.012 323.685 852.361 326.448 847.921 328.52C843.58 330.493 838.498 331.48 832.677 331.48C826.757 331.48 821.626 330.641 817.285 328.964C813.042 327.188 809.54 324.672 806.777 321.416C804.113 318.16 802.09 314.213 800.709 309.576C799.426 304.84 798.785 299.561 798.785 293.74C798.785 288.116 799.476 282.887 800.857 278.052C802.337 273.217 804.508 269.073 807.369 265.62C810.329 262.068 813.98 259.305 818.321 257.332C822.761 255.26 827.941 254.224 833.861 254.224ZM832.529 271.836C830.753 271.836 829.273 272.379 828.089 273.464C826.905 274.451 825.968 275.881 825.277 277.756C824.685 279.532 824.241 281.653 823.945 284.12C823.748 286.587 823.649 289.251 823.649 292.112C823.649 295.072 823.797 297.884 824.093 300.548C824.389 303.212 824.882 305.531 825.573 307.504C826.362 309.477 827.448 311.056 828.829 312.24C830.21 313.325 831.937 313.868 834.009 313.868C835.785 313.868 837.265 313.325 838.449 312.24C839.633 311.155 840.521 309.724 841.113 307.948C841.804 306.073 842.248 303.903 842.445 301.436C842.741 298.969 842.889 296.355 842.889 293.592C842.889 290.533 842.741 287.721 842.445 285.156C842.149 282.492 841.606 280.173 840.817 278.2C840.126 276.227 839.09 274.697 837.709 273.612C836.328 272.428 834.601 271.836 832.529 271.836ZM903.5 261.328C906.065 259.059 909.025 257.381 912.38 256.296C915.734 255.211 919.237 254.668 922.888 254.668C930.584 254.668 936.06 256.987 939.316 261.624C942.572 266.261 944.2 272.527 944.2 280.42V330H920.668V283.824C920.668 280.371 920.224 277.608 919.336 275.536C918.546 273.365 917.017 272.28 914.748 272.28C913.465 272.28 912.133 272.724 910.752 273.612C909.469 274.401 908.285 275.635 907.2 277.312C906.114 278.891 905.226 280.864 904.536 283.232C903.845 285.501 903.5 288.067 903.5 290.928V330H880.116V226.696L903.5 222.7V261.328ZM1003.1 330V283.824C1003.1 280.371 1002.66 277.608 1001.77 275.536C1000.98 273.365 999.452 272.28 997.183 272.28C994.42 272.28 991.855 274.105 989.487 277.756C987.119 281.308 985.935 286.34 985.935 292.852V330H962.551V291.52C962.551 285.6 962.107 280.716 961.219 276.868C960.429 272.921 959.492 269.715 958.407 267.248C957.223 264.485 955.891 262.265 954.411 260.588L973.207 254.668C974.095 255.655 974.983 256.789 975.871 258.072C976.66 259.157 977.4 260.588 978.091 262.364C978.88 264.041 979.521 265.965 980.015 268.136C982.58 263.499 986.083 260.095 990.523 257.924C995.061 255.753 999.995 254.668 1005.32 254.668C1013.02 254.668 1018.49 257.036 1021.75 261.772C1025.01 266.409 1026.63 272.625 1026.63 280.42V330H1003.1Z" fill="black" fill-opacity="0.75"/>
</svg>
