<svg width="427" height="114" viewBox="0 0 427 114" fill="none" xmlns="http://www.w3.org/2000/svg">
<path d="M137.56 70.2019L142.323 75.271L138.241 79.5515L133.216 74.2009C130.634 75.7403 127.564 76.5289 124.005 76.5664C118.736 76.5664 114.479 74.7453 111.234 71.1031C107.745 67.1229 106 62.0163 106 55.7832C106 49.5877 107.745 44.481 111.234 40.4633C114.409 36.8211 118.683 35 124.057 35C129.396 35 133.652 36.8211 136.828 40.4633C140.317 44.5186 142.062 49.6252 142.062 55.7832C142.062 61.3404 140.683 65.9965 137.927 69.7513L137.56 70.2019ZM132.326 64.5696L132.484 64.2317C133.74 61.9412 134.368 59.1063 134.368 55.7269C134.368 51.3337 133.303 47.8792 131.175 45.3634C129.326 43.1856 126.953 42.0967 124.057 42.0967C120.707 42.0967 118.073 43.5048 116.154 46.3209C114.514 48.7616 113.694 51.9157 113.694 55.7832C113.694 60.2515 114.758 63.7248 116.887 66.203C118.736 68.3808 121.126 69.4697 124.057 69.4697C125.453 69.4697 126.779 69.2069 128.035 68.6812L123.691 63.9501L127.773 59.6695L132.326 64.5696ZM171.922 75.9469H164.752V71.7226C162.798 74.9518 160.024 76.5664 156.43 76.5664C153.255 76.5664 150.847 75.5526 149.207 73.525C147.812 71.7602 147.114 69.3383 147.114 66.2593V46.0956H154.337V64.6259C154.337 68.1931 155.872 69.9766 158.942 69.9766C160.687 69.9766 162.083 69.4509 163.129 68.3996C164.211 67.3482 164.752 65.9214 164.752 64.119V46.0956H171.922V75.9469ZM202.887 63.0489H184.254C184.359 65.452 184.708 67.1605 185.301 68.1743C186.313 69.8264 187.9 70.6525 190.064 70.6525C192.75 70.6525 194.547 69.4509 195.454 67.0478H202.573C201.77 69.9766 200.2 72.3046 197.862 74.0319C195.559 75.7216 192.855 76.5664 189.75 76.5664C185.527 76.5664 182.282 75.0457 180.014 72.0042C178.026 69.3383 177.031 65.8275 177.031 61.4718C177.031 56.1775 178.322 52.0847 180.904 49.1934C183.172 46.7152 186.156 45.4761 189.854 45.4761C192.68 45.4761 195.158 46.2271 197.286 47.729C199.415 49.231 200.933 51.3337 201.84 54.0372C202.573 56.1399 202.939 58.6745 202.939 61.6408C202.939 62.0163 202.921 62.4857 202.887 63.0489ZM195.402 57.9235C195.053 53.5678 193.186 51.39 189.802 51.39C186.627 51.39 184.812 53.5678 184.359 57.9235H195.402ZM207.995 46.0956H215.217V50.3199C217.171 47.0907 219.927 45.4761 223.487 45.4761C226.662 45.4761 229.069 46.4899 230.709 48.5175C232.105 50.3199 232.803 52.7605 232.803 55.8395V75.9469H225.632V57.4166C225.632 53.8495 224.08 52.0659 220.974 52.0659C219.23 52.0659 217.834 52.6103 216.788 53.6993C215.741 54.7506 215.217 56.1587 215.217 57.9235V75.9469H207.995V46.0956ZM257.014 46.0956H263.87V75.6652C263.87 80.2837 262.527 83.588 259.84 85.5781C257.572 87.1927 254.467 88 250.524 88C246.407 88 243.266 87.0425 241.103 85.1275C239.323 83.588 238.399 81.7294 238.329 79.5515H245.761C246.354 81.8796 248.064 83.0436 250.89 83.0436C252.67 83.0436 254.17 82.4428 255.391 81.2412C256.473 80.1899 257.014 78.5565 257.014 76.3411V71.8916C255.688 73.6564 254.449 74.8767 253.298 75.5526C252.146 76.2285 250.751 76.5664 249.111 76.5664C245.517 76.5664 242.673 74.9894 240.58 71.8353C238.73 69.1318 237.806 65.6961 237.806 61.5282C237.806 56.6093 239.044 52.5916 241.522 49.475C243.685 46.8091 246.302 45.4761 249.373 45.4761C252.373 45.4761 254.92 47.0344 257.014 50.1509V46.0956ZM250.838 51.9532C249.093 51.9532 247.68 52.8169 246.599 54.5441C245.552 56.2713 245.028 58.5243 245.028 61.3029C245.028 63.9688 245.552 66.1091 246.599 67.7237C247.68 69.3383 249.093 70.1456 250.838 70.1456C252.652 70.1456 254.153 69.3195 255.339 67.6674C256.456 66.1279 257.014 63.9876 257.014 61.2465C257.014 58.2802 256.368 55.9334 255.077 54.2062C253.961 52.7042 252.548 51.9532 250.838 51.9532ZM294.838 63.0489H276.205C276.31 65.452 276.659 67.1605 277.252 68.1743C278.264 69.8264 279.851 70.6525 282.015 70.6525C284.701 70.6525 286.498 69.4509 287.405 67.0478H294.524C293.721 69.9766 292.151 72.3046 289.813 74.0319C287.51 75.7216 284.806 76.5664 281.701 76.5664C277.479 76.5664 274.234 75.0457 271.965 72.0042C269.977 69.3383 268.982 65.8275 268.982 61.4718C268.982 56.1775 270.273 52.0847 272.855 49.1934C275.123 46.7152 278.107 45.4761 281.805 45.4761C284.632 45.4761 287.109 46.2271 289.237 47.729C291.366 49.231 292.884 51.3337 293.791 54.0372C294.524 56.1399 294.89 58.6745 294.89 61.6408C294.89 62.0163 294.872 62.4857 294.838 63.0489ZM287.353 57.9235C287.004 53.5678 285.137 51.39 281.753 51.39C278.578 51.39 276.763 53.5678 276.31 57.9235H287.353ZM299.945 46.0956H307.168V50.3199C309.122 47.0907 311.878 45.4761 315.437 45.4761C318.613 45.4761 321.02 46.4899 322.66 48.5175C324.056 50.3199 324.754 52.7605 324.754 55.8395V75.9469H317.583V57.4166C317.583 53.8495 316.031 52.0659 312.925 52.0659C311.18 52.0659 309.785 52.6103 308.738 53.6993C307.691 54.7506 307.168 56.1587 307.168 57.9235V75.9469H299.945V46.0956ZM355.507 63.0489H336.874C336.979 65.452 337.328 67.1605 337.921 68.1743C338.933 69.8264 340.521 70.6525 342.684 70.6525C345.371 70.6525 347.168 69.4509 348.075 67.0478H355.193C354.391 69.9766 352.82 72.3046 350.483 74.0319C348.18 75.7216 345.476 76.5664 342.37 76.5664C338.148 76.5664 334.903 75.0457 332.635 72.0042C330.646 69.3383 329.652 65.8275 329.652 61.4718C329.652 56.1775 330.943 52.0847 333.525 49.1934C335.793 46.7152 338.776 45.4761 342.475 45.4761C345.301 45.4761 347.778 46.2271 349.907 47.729C352.035 49.231 353.553 51.3337 354.46 54.0372C355.193 56.1399 355.56 58.6745 355.56 61.6408C355.56 62.0163 355.542 62.4857 355.507 63.0489ZM348.023 57.9235C347.674 53.5678 345.807 51.39 342.422 51.39C339.247 51.39 337.433 53.5678 336.979 57.9235H348.023ZM383.698 54.882H376.371C376.336 53.6805 375.935 52.8356 375.167 52.3475C374.399 51.8218 373.073 51.559 371.189 51.559C368.433 51.559 367.054 52.4226 367.054 54.1498C367.054 55.1637 367.892 55.9146 369.567 56.4028L378.674 59.1626C382.303 60.2515 384.117 62.7297 384.117 66.5972C384.117 69.6387 383.018 72.0981 380.82 73.9756C378.761 75.7028 375.795 76.5664 371.922 76.5664C367.177 76.5664 363.775 75.8154 361.716 74.3135C359.692 72.8866 358.61 70.5774 358.471 67.3858H365.641C365.851 68.6249 366.339 69.4509 367.107 69.864C367.909 70.277 369.375 70.4835 371.503 70.4835C375.097 70.4835 376.894 69.5636 376.894 67.7237C376.894 66.6348 376.092 65.8275 374.487 65.3018L365.903 62.4857C363.705 61.7722 362.204 60.9462 361.402 60.0074C360.355 58.8434 359.832 57.2664 359.832 55.2763C359.832 52.0096 360.983 49.4938 363.286 47.729C365.31 46.2271 367.962 45.4761 371.242 45.4761C375.219 45.4761 378.36 46.4336 380.663 48.3486C382.651 50.0383 383.663 52.2161 383.698 54.882ZM396.515 46.0956V75.9469H389.292V46.0956H396.515ZM392.851 35.8448C393.793 35.8448 394.578 36.2016 395.206 36.915C395.869 37.6284 396.201 38.492 396.201 39.5058C396.201 40.5197 395.869 41.3833 395.206 42.0967C394.578 42.7726 393.793 43.1105 392.851 43.1105C391.909 43.1105 391.106 42.7726 390.443 42.0967C389.78 41.3833 389.449 40.5197 389.449 39.5058C389.449 38.492 389.78 37.6284 390.443 36.915C391.106 36.2016 391.909 35.8448 392.851 35.8448ZM426.581 54.882H419.254C419.219 53.6805 418.818 52.8356 418.05 52.3475C417.282 51.8218 415.956 51.559 414.072 51.559C411.316 51.559 409.937 52.4226 409.937 54.1498C409.937 55.1637 410.775 55.9146 412.45 56.4028L421.557 59.1626C425.186 60.2515 427 62.7297 427 66.5972C427 69.6387 425.901 72.0981 423.703 73.9756C421.644 75.7028 418.678 76.5664 414.805 76.5664C410.06 76.5664 406.658 75.8154 404.599 74.3135C402.575 72.8866 401.493 70.5774 401.354 67.3858H408.524C408.734 68.6249 409.222 69.4509 409.99 69.864C410.792 70.277 412.258 70.4835 414.386 70.4835C417.98 70.4835 419.777 69.5636 419.777 67.7237C419.777 66.6348 418.975 65.8275 417.37 65.3018L408.786 62.4857C406.588 61.7722 405.087 60.9462 404.285 60.0074C403.238 58.8434 402.715 57.2664 402.715 55.2763C402.715 52.0096 403.866 49.4938 406.169 47.729C408.193 46.2271 410.845 45.4761 414.125 45.4761C418.102 45.4761 421.243 46.4336 423.546 48.3486C425.535 50.0383 426.546 52.2161 426.581 54.882Z" fill="#575757"/>
<path d="M19.6463 110.407C13.2319 99.8315 12.1804 83.7453 17.0175 71.0848C24.4835 51.5726 42.0442 41.2955 64.5473 43.2317C70.0152 43.6785 74.642 44.4231 74.9574 44.8702C75.2729 45.3169 73.8008 49.9344 71.6976 55.2965L67.912 64.9779L58.974 64.0843C41.203 62.297 26.271 70.4889 21.0133 84.788C19.1206 90.0011 19.1206 102.513 21.0133 109.066C22.906 115.322 22.6957 115.471 19.6463 110.407Z" fill="#EF648A"/>
<path d="M28.0748 108.116C24.2059 94.4088 31.0026 83.1115 44.9101 79.7979C52.3343 78.141 63 79.1952 63 81.7561C63 82.6597 62.2681 85.0699 61.327 86.8775C59.8632 89.8899 58.9219 90.1913 49.6155 90.1913C41.3548 90.1913 38.8451 90.7938 36.1265 93.2037C31.2117 97.4215 29.1205 102.694 29.8524 109.02C30.5843 115.949 30.1661 115.648 28.0748 108.116Z" fill="#EF648A"/>
<path d="M9.6047 106.733C4.12572 98.9743 1.59698 91.5139 0.437961 80.4724C-1.4586 61.0749 2.75599 45.1095 14.03 29.4424C24.8825 14.223 40.2658 4.37518 58.2833 0.943351C66.7125 -0.697959 82.0956 -0.101119 89.1551 1.98782L92 2.88309L88.9444 11.3881C83.4655 26.6074 85.0459 25.563 67.2393 25.1155C53.9634 24.9663 50.2756 25.2647 43.6375 27.9503C18.2446 38.0966 3.07208 65.1037 7.70813 91.663C8.44569 95.5424 10.4476 101.959 12.1335 105.987C13.8193 109.867 14.8729 113 14.6622 113C14.3461 113 12.0281 110.165 9.6047 106.733Z" fill="#EF648A"/>
<path d="M9.6047 106.733C4.12572 98.9743 1.59698 91.5139 0.437961 80.4724C-1.4586 61.0749 2.75599 45.1095 14.03 29.4424C24.8825 14.223 40.2658 4.37518 58.2833 0.943351C66.7125 -0.697959 82.0956 -0.101119 89.1551 1.98782L92 2.88309L88.9444 11.3881C83.4655 26.6074 85.0459 25.563 67.2393 25.1155C53.9634 24.9663 50.2756 25.2647 43.6375 27.9503C18.2446 38.0966 3.07208 65.1037 7.70813 91.663C8.44569 95.5424 10.4476 101.959 12.1335 105.987C13.8193 109.867 14.8729 113 14.6622 113C14.3461 113 12.0281 110.165 9.6047 106.733Z" fill="#EF648A"/>
<path d="M19.6463 110.407C13.2319 99.8315 12.1804 83.7453 17.0175 71.0848C24.4835 51.5726 42.0442 41.2955 64.5473 43.2317C70.0152 43.6785 74.642 44.4231 74.9574 44.8702C75.2729 45.3169 73.8008 49.9344 71.6976 55.2965L67.912 64.9779L58.974 64.0843C41.203 62.297 26.271 70.4889 21.0133 84.788C19.1206 90.0011 19.1206 102.513 21.0133 109.066C22.906 115.322 22.6957 115.471 19.6463 110.407Z" fill="#EF648A"/>
<path d="M9.6047 106.733C4.12572 98.9743 1.59698 91.5139 0.437961 80.4724C-1.4586 61.0749 2.75599 45.1095 14.03 29.4424C24.8825 14.223 40.2658 4.37518 58.2833 0.943351C66.7125 -0.697959 82.0956 -0.101119 89.1551 1.98782L92 2.88309L88.9444 11.3881C83.4655 26.6074 85.0459 25.563 67.2393 25.1155C53.9634 24.9663 50.2756 25.2647 43.6375 27.9503C18.2446 38.0966 3.07208 65.1037 7.70813 91.663C8.44569 95.5424 10.4476 101.959 12.1335 105.987C13.8193 109.867 14.8729 113 14.6622 113C14.3461 113 12.0281 110.165 9.6047 106.733Z" fill="#EF648A"/>
<path d="M9.6047 106.733C4.12572 98.9743 1.59698 91.5139 0.437961 80.4724C-1.4586 61.0749 2.75599 45.1095 14.03 29.4424C24.8825 14.223 40.2658 4.37518 58.2833 0.943351C66.7125 -0.697959 82.0956 -0.101119 89.1551 1.98782L92 2.88309L88.9444 11.3881C83.4655 26.6074 85.0459 25.563 67.2393 25.1155C53.9634 24.9663 50.2756 25.2647 43.6375 27.9503C18.2446 38.0966 3.07208 65.1037 7.70813 91.663C8.44569 95.5424 10.4476 101.959 12.1335 105.987C13.8193 109.867 14.8729 113 14.6622 113C14.3461 113 12.0281 110.165 9.6047 106.733Z" fill="#EF648A"/>
</svg>
